<?xml version="1.0" encoding="UTF-8"?>
<svg width="91px" height="104px" viewBox="0 0 91 104" version="1.1" xmlns="http://www.w3.org/2000/svg" xmlns:xlink="http://www.w3.org/1999/xlink">
    <!-- Generator: Sketch 51.1 (57501) - http://www.bohemiancoding.com/sketch -->
    <title>Logo</title>
    <desc>Created with Sketch.</desc>
    <defs></defs>
    <g id="Page-1" stroke="none" stroke-width="1" fill="none" fill-rule="evenodd">
        <g id="Desktop-3" transform="translate(-24.000000, -14.000000)">
            <g id="Header" transform="translate(0.000000, -6.000000)">
                <g id="Logo" transform="translate(12.000000, 0.000000)">
                    <circle id="Path" fill="#0BE881" fill-rule="nonzero" cx="49.5" cy="116.5" r="6.5"></circle>
                    <circle id="Path" fill="#FF5E57" fill-rule="nonzero" cx="91.5" cy="93.5" r="6.5"></circle>
                    <circle id="Path" fill="#0BE881" fill-rule="nonzero" cx="96.5" cy="53.5" r="4.5"></circle>
                    <circle id="Path" fill="#FF5E57" fill-rule="nonzero" cx="62.5" cy="28.5" r="6.5"></circle>
                    <circle id="Path" fill="#0BE881" fill-rule="nonzero" cx="17.5" cy="75.5" r="4.5"></circle>
                    <g id="noun_statistics_1678124" transform="translate(72.833174, 72.384460) rotate(-43.000000) translate(-72.833174, -72.384460) translate(18.333174, 25.384460)">
                        <path d="M84.1633255,43.8064331 C82.3292579,43.8064331 80.6989755,44.6195456 79.5781564,45.9408533 L61.9507287,38.8261194 C62.4601919,37.1998945 62.7658699,35.4720305 62.7658699,33.6425275 C62.7658699,29.2720481 61.1355875,25.409764 58.3844861,22.3605923 L71.3248521,12.3999648 C72.6494565,13.9245507 74.5854168,14.8393022 76.7251624,14.8393022 C80.8008682,14.8393022 84.1633255,11.4852133 84.1633255,7.41965108 C84.1633255,3.35408885 80.8008682,4.54747351e-13 76.7251624,4.54747351e-13 C72.6494565,4.54747351e-13 69.2869992,3.35408885 69.2869992,7.41965108 C69.2869992,8.63931975 69.5926771,9.75734937 70.1021404,10.6721009 L56.8560964,20.8360065 C53.799317,18.193391 49.9273965,16.5671661 45.6479054,16.5671661 C39.7381319,16.5671661 34.6434996,19.5146987 31.5867202,24.0884563 L16.9141792,13.4163554 C17.1179645,12.9081601 17.2198572,12.3999648 17.2198572,11.7901305 C17.2198572,8.84259787 14.7744337,6.40326052 11.8195469,6.40326052 C8.86466019,6.40326052 6.41923669,8.84259787 6.41923669,11.7901305 C6.41923669,14.7376631 8.86466019,17.1770005 11.8195469,17.1770005 C13.4498293,17.1770005 14.8763263,16.4655271 15.8952528,15.2458584 L30.5677938,25.9179593 C29.345082,28.2556576 28.6318335,30.898273 28.6318335,33.6425275 C28.6318335,37.0982554 29.65076,40.3507052 31.4848276,42.9933207 L11.8195469,56.7145932 C10.5968352,55.7998417 9.06844548,55.2916464 7.43816315,55.2916464 C3.36245731,55.2916464 9.09494702e-12,58.6457353 9.09494702e-12,62.7112975 C9.09494702e-12,66.7768598 3.36245731,70.1309486 7.43816315,70.1309486 C11.513869,70.1309486 14.8763263,66.7768598 14.8763263,62.7112975 C14.8763263,61.0850726 14.2649704,59.4588477 13.3479366,58.2391791 L32.7075393,44.7211846 C35.8662114,48.3801906 40.4513804,50.7178889 45.6479054,50.7178889 C46.1573686,50.7178889 46.6668318,50.7178889 47.0744024,50.6162499 L51.4557862,68.5047237 C48.7046847,69.6227533 46.8706171,72.2653688 46.8706171,75.3145405 C46.8706171,79.3801027 50.2330744,82.7341915 54.3087803,82.7341915 C58.3844861,82.7341915 61.7469434,79.3801027 61.7469434,75.3145405 C61.7469434,71.2489782 58.3844861,67.8948894 54.3087803,67.8948894 C54.0031023,67.8948894 53.799317,67.8948894 53.4936391,67.8948894 L49.1122553,50.3113327 C54.5125655,49.1933031 58.8939493,45.5342971 61.1355875,40.7572614 L78.6611226,47.7703563 C78.4573373,48.3801906 78.3554447,48.990025 78.3554447,49.7014984 C78.3554447,52.9539481 81.0046535,55.5965636 84.2652181,55.5965636 C87.5257828,55.5965636 90.1749916,52.9539481 90.1749916,49.7014984 C90.1749916,46.4490486 87.4238902,43.8064331 84.1633255,43.8064331 Z M76.7251624,2.13442017 C79.6800491,2.13442017 82.1254726,4.57375752 82.1254726,7.52129014 C82.1254726,10.4688228 79.6800491,12.9081601 76.7251624,12.9081601 C73.7702756,12.9081601 71.3248521,10.4688228 71.3248521,7.52129014 C71.3248521,4.57375752 73.7702756,2.13442017 76.7251624,2.13442017 Z M11.8195469,15.1442193 C9.9854793,15.1442193 8.45708961,13.6196335 8.45708961,11.7901305 C8.45708961,9.96062748 9.9854793,8.43604164 11.8195469,8.43604164 C13.6536145,8.43604164 15.1820042,9.96062748 15.1820042,11.7901305 C15.1820042,13.6196335 13.6536145,15.1442193 11.8195469,15.1442193 Z M7.43816315,67.8948894 C4.48327642,67.8948894 2.03785292,65.455552 2.03785292,62.5080194 C2.03785292,59.5604868 4.48327642,57.1211494 7.43816315,57.1211494 C10.3930499,57.1211494 12.8384734,59.5604868 12.8384734,62.5080194 C12.8384734,65.455552 10.3930499,67.8948894 7.43816315,67.8948894 Z M59.6071978,75.3145405 C59.6071978,78.2620731 57.1617743,80.7014104 54.2068876,80.7014104 C51.2520009,80.7014104 48.8065774,78.2620731 48.8065774,75.3145405 C48.8065774,72.3670078 51.2520009,69.9276705 54.2068876,69.9276705 C57.1617743,69.9276705 59.6071978,72.3670078 59.6071978,75.3145405 Z M84.1633255,53.4621434 C82.0235799,53.4621434 80.291405,51.7342795 80.291405,49.5998593 C80.291405,47.4654391 82.0235799,45.7375752 84.1633255,45.7375752 C86.3030711,45.7375752 88.035246,47.4654391 88.035246,49.5998593 C88.035246,51.7342795 86.3030711,53.4621434 84.1633255,53.4621434 Z" id="Shape" fill="#000000" fill-rule="nonzero"></path>
                        <ellipse id="Oval" stroke="#000000" stroke-width="2" fill="#FFFFFF" cx="45.9719984" cy="33.5983166" rx="17.29" ry="17.3296703"></ellipse>
                        <g id="noun_soccer_1190510" transform="translate(73.746035, 58.983033)"></g>
                        <g id="noun_Soccer-Ball_215515" transform="translate(46.047583, 33.442081) rotate(39.000000) translate(-46.047583, -33.442081) translate(28.872583, 17.248509)" fill="#000000" fill-rule="nonzero">
                            <g id="Group" transform="translate(0.878120, 0.000000)">
                                <path d="M12.1077293,9.58700752 C14.3805113,7.62415038 16.6739549,6.0693609 18.9932256,5.14475188 C21.4726241,6.42577444 23.6834211,7.90308271 25.5584662,9.62316541 C25.4758195,12.5209624 24.943782,15.3929323 24.1018195,17.6605489 L15.4704135,17.8258421 C14.339188,15.888812 13.2492857,12.815391 12.1077293,9.58700752 Z" id="Shape"></path>
                                <path d="M22.8724511,29.8250977 C24.7010075,28.2806391 26.1008346,26.2041429 27.2165639,23.7763985 C28.4407669,23.5387895 29.7114586,22.9757594 31.0131429,22.133797 C30.5895789,25.8270677 27.8157519,28.2703083 24.7836541,30.5792481 C24.0243383,30.5534211 23.3734962,30.3209774 22.8724511,29.8250977 Z" id="Shape"></path>
                                <path d="M14.5303083,30.3726316 C12.8670451,28.8333383 11.6118496,26.9531278 10.7337293,24.7681579 C8.38346617,24.6390226 6.11584962,24.194797 3.9308797,23.4354812 C3.97220301,25.207218 4.10133835,26.7671729 4.47841353,27.7072782 C6.01254135,29.3188872 8.1303609,30.5947444 10.5271128,31.7053083 C12.0560752,31.7259699 13.3577594,31.2094286 14.5303083,30.3726316 Z" id="Shape"></path>
                                <path d="M1.49280451,15.4394211 C2.75316541,12.4589774 4.17365414,9.66448872 5.49083459,9.03947368 C5.29454887,7.56216541 5.27388722,6.16233835 5.49083459,4.85032331 C2.48456391,6.27597744 0.366744361,9.1582782 0,14.1325714 C0.278932331,14.6801053 0.821300752,15.1191654 1.49280451,15.4394211 Z" id="Shape"></path>
                                <path d="M11.6583383,0.614684211 C13.6728496,0.470052632 15.7028571,0.211781955 17.6398872,0.924609023 C18.249406,0.516541353 19.5252632,0.563030075 20.821782,0.614684211 C17.9446466,-0.315090226 14.8402331,-0.0619849624 11.6583383,0.614684211 Z" id="Shape"></path>
                                <path d="M29.0244586,6.10035338 C29.6391429,7.29356391 30.2125038,8.46611278 29.9490677,9.14278195 C31.1732707,10.4496316 31.9429173,12.2058722 32.4388105,14.2203835 C32.4439624,11.6015188 30.9718195,8.86901504 29.0244586,6.10035338 Z" id="Shape"></path>
                            </g>
                        </g>
                    </g>
                </g>
            </g>
        </g>
    </g>
</svg>